<svg width="17" height="16" viewBox="0 0 17 16" fill="none" xmlns="http://www.w3.org/2000/svg">
<path d="M10.3922 9.49501L16.1217 15.0808L15.2207 16L9.49191 10.4135C8.47476 11.2432 7.20198 11.6944 5.88438 11.6926C2.67882 11.6926 0.0428369 9.07342 0.000487356 5.84628C-0.0418622 2.61913 2.52538 0 5.73093 0C8.93649 0 11.5725 2.61913 11.6148 5.84628C11.6341 7.17273 11.2028 8.46005 10.3922 9.49501ZM9.09155 9.01301C9.89913 8.16511 10.3415 7.02876 10.3243 5.84628C10.2914 3.33433 8.24313 1.29917 5.74798 1.29917C3.25284 1.29917 1.25801 3.33433 1.29097 5.84628C1.32393 8.35823 3.37218 10.3934 5.86733 10.3934C7.04192 10.395 8.16463 9.93467 8.99604 9.11045L9.09155 9.01301Z" fill="#98BFF3"/>
</svg>
